<?xml version="1.0" encoding="UTF-8"?>
<svg id="Layer_1" data-name="Layer 1" xmlns="http://www.w3.org/2000/svg" viewBox="0 0 157.34 101.82">
  <defs>
    <style>
      .cls-1 {
        fill: #b46028;
      }

      .cls-1, .cls-2, .cls-3, .cls-4, .cls-5, .cls-6, .cls-7, .cls-8, .cls-9, .cls-10, .cls-11, .cls-12, .cls-13, .cls-14, .cls-15, .cls-16, .cls-17, .cls-18, .cls-19, .cls-20, .cls-21, .cls-22, .cls-23, .cls-24, .cls-25, .cls-26, .cls-27, .cls-28, .cls-29, .cls-30, .cls-31, .cls-32, .cls-33, .cls-34, .cls-35, .cls-36, .cls-37, .cls-38, .cls-39, .cls-40, .cls-41, .cls-42, .cls-43, .cls-44, .cls-45, .cls-46, .cls-47, .cls-48, .cls-49, .cls-50, .cls-51, .cls-52, .cls-53, .cls-54, .cls-55, .cls-56, .cls-57, .cls-58, .cls-59, .cls-60, .cls-61, .cls-62, .cls-63, .cls-64, .cls-65, .cls-66, .cls-67, .cls-68, .cls-69, .cls-70, .cls-71, .cls-72, .cls-73, .cls-74, .cls-75 {
        stroke-width: 0px;
      }

      .cls-2 {
        fill: #c37534;
      }

      .cls-3 {
        fill: #df9c4f;
      }

      .cls-4 {
        fill: #9b4218;
      }

      .cls-5 {
        fill: #5a4e40;
      }

      .cls-6 {
        fill: #665b49;
      }

      .cls-7 {
        fill: #e09c50;
      }

      .cls-8 {
        fill: #f5bb66;
      }

      .cls-76, .cls-19, .cls-77, .cls-78, .cls-79, .cls-80, .cls-81, .cls-82 {
        isolation: isolate;
      }

      .cls-76, .cls-77, .cls-79, .cls-80, .cls-81, .cls-82 {
        fill: #fff;
        font-family: Calibri, Calibri;
        font-size: 3.79px;
      }

      .cls-9 {
        fill: #c97534;
      }

      .cls-10 {
        fill: #f8f3e8;
      }

      .cls-11 {
        fill: #9e4518;
      }

      .cls-12 {
        fill: #de984e;
      }

      .cls-13 {
        fill: #ebe2b0;
      }

      .cls-14 {
        fill: #f9db1e;
      }

      .cls-15 {
        fill: #bf7032;
      }

      .cls-16 {
        fill: #c07132;
      }

      .cls-17 {
        fill: #f5c50d;
      }

      .cls-18 {
        fill: #6e3819;
      }

      .cls-19 {
        fill: #eba937;
        opacity: .8;
      }

      .cls-77 {
        letter-spacing: -.02em;
      }

      .cls-20 {
        fill: #6c5e49;
      }

      .cls-21 {
        fill: #f6e781;
      }

      .cls-22 {
        fill: #c57232;
      }

      .cls-23 {
        fill: #d59245;
      }

      .cls-24 {
        fill: #c07133;
      }

      .cls-25 {
        fill: #76270a;
      }

      .cls-26 {
        fill: #911d29;
      }

      .cls-27 {
        fill: #ca7335;
      }

      .cls-28 {
        fill: #c87334;
      }

      .cls-29 {
        fill: #9f4619;
      }

      .cls-30 {
        fill: #fada06;
      }

      .cls-31 {
        fill: #a44b1c;
      }

      .cls-32 {
        fill: #dcd6cc;
      }

      .cls-79 {
        letter-spacing: -.1em;
      }

      .cls-33 {
        fill: #c57233;
      }

      .cls-34 {
        fill: #fbcc05;
      }

      .cls-35 {
        fill: #fccb04;
      }

      .cls-36 {
        fill: #5c4f40;
      }

      .cls-37 {
        fill: #c6712e;
      }

      .cls-38 {
        fill: #c06c2f;
      }

      .cls-39 {
        fill: #712609;
      }

      .cls-80 {
        letter-spacing: -.02em;
      }

      .cls-40 {
        fill: #f5bd68;
      }

      .cls-41 {
        fill: #d58c43;
      }

      .cls-42 {
        fill: #f8d913;
      }

      .cls-43 {
        fill: #f6be69;
      }

      .cls-44 {
        fill: #6d634f;
      }

      .cls-45 {
        fill: #da974e;
      }

      .cls-46 {
        fill: #c0b8a4;
      }

      .cls-47 {
        fill: #b26024;
      }

      .cls-48 {
        fill: #6e3817;
      }

      .cls-49 {
        fill: #d78e46;
      }

      .cls-50 {
        fill: #f5f3eb;
      }

      .cls-51 {
        fill: #5a4e3d;
      }

      .cls-52 {
        fill: #f7c40b;
      }

      .cls-53 {
        fill: #af5a24;
      }

      .cls-54 {
        fill: #f8dd38;
      }

      .cls-55 {
        fill: #c09716;
      }

      .cls-56 {
        fill: #f9f6f2;
      }

      .cls-81 {
        letter-spacing: 0em;
      }

      .cls-57 {
        fill: #f2c416;
      }

      .cls-58 {
        fill: #fbdd2d;
      }

      .cls-59 {
        fill: #e2413e;
      }

      .cls-60 {
        fill: #f8f2e8;
      }

      .cls-61 {
        fill: #c97635;
      }

      .cls-62 {
        fill: #b4292b;
      }

      .cls-63 {
        fill: #611f29;
      }

      .cls-64 {
        fill: #c49a0e;
      }

      .cls-65 {
        fill: #fbcd05;
      }

      .cls-66 {
        fill: #a76833;
      }

      .cls-67 {
        fill: #f0b661;
      }

      .cls-68 {
        fill: #c26d30;
      }

      .cls-69 {
        fill: #9b4318;
      }

      .cls-70 {
        fill: #b9ae9a;
      }

      .cls-71 {
        fill: #7f2d34;
      }

      .cls-72 {
        fill: #a2652f;
      }

      .cls-73 {
        fill: #ca7635;
      }

      .cls-74 {
        fill: #dcd6ce;
      }

      .cls-75 {
        fill: #f9c16b;
      }

      .cls-82 {
        letter-spacing: -.05em;
      }
    </style>
  </defs>
  <g>
    <path class="cls-43" d="M42.27,64.31c0-4.08,0-8.16,0-12.24.16,0,.3.05.41.17.64.57,1.44.38,2.17.39,9.02.02,18.04,0,27.07.01,11.26,0,22.51,0,33.77,0,.75,0,1.53-.13,2.22.3.57.81.5,1.65.11,2.5-.35.32-.8.35-1.24.34-4.12-.09-8.25.36-10.82.08,2.55.19,6.65-.13,10.75.14.44.03.88.02,1.26.3.59,1.39.38,2.82.15,4.24-.64.71-1.57.7-2.4.89-3.59.85-7.16,1.81-10.77,2.55-.97.2-1.95.33-2.92.56-.22.06-.44.06-.66.07-15.84.06-31.68.01-47.53.03-.4,0-.8.04-1.19-.09-.15-.06-.28-.15-.39-.27Z"/>
    <path class="cls-75" d="M42.43,52.08c-.06,0-.11,0-.17,0-.02-2.14-.04-4.28-.06-6.42.83.18.51.87.54,1.34.1,1.19.06,1.19,1.25.92,8.66-1.99,17.34-3.9,26.01-5.88,2.17-.5,4.37-.9,6.53-1.47.61-.12,1.22-.12,1.83,0,7.47,1.89,14.96,3.69,22.46,5.42,2.02.47,4.03.98,6.05,1.48.42.1.86.2,1.17.55.32.6.23,1.24.22,1.88-.02.73.12,1.48-.24,2.18-.1.12-.23.21-.38.27-.58.19-1.19.14-1.78.14-20.46,0-40.91,0-61.37,0-.71,0-1.45.13-2.07-.38Z"/>
    <path class="cls-62" d="M35.53,44.92c-.01-3.59,0-7.18-.05-10.77-.01-.87.5-.93,1.1-1.07,9.3-2.21,18.6-4.43,27.9-6.65,3.25-.78,6.51-1.55,9.76-2.34.67-.16,1.34-.2,2.01-.09,2.92.38,5.75,1.16,8.59,1.88.48.12,1.06.11,1.31.69-.11.25-.35.31-.58.38-5.23,1.48-10.17,3.75-15.25,5.63-3.4,1.26-6.81,2.5-10.19,3.81-5.24,2.03-10.46,4.12-15.73,6.08-2.39.89-4.76,1.82-7.12,2.77-.33.16-.71.07-1.05.19-.47.15-.62-.13-.7-.51Z"/>
    <path class="cls-63" d="M125.84,33.3c.5.17.3.6.3.91.02,3.46,0,6.92.03,10.37,0,.73-.2.96-.94.95-1.94-.03-3.89.03-5.83.06-.11.1-.24.15-.38.17-.15,0-.29,0-.43-.05-.92-.07-1.84-.02-2.75-.04-.81-.01-1.25-.4-1.39-1.19-.07-.39-.15-.79-.14-1.19.04-2.95-.22-5.9.18-8.84.06-.43.07-.88.42-1.22.43-.27.91-.27,1.39-.27,3.18.02,6.37-.16,9.54.32Z"/>
    <path class="cls-28" d="M119.18,45.61c.07-.03.15-.04.22-.01,0,13.87.01,27.75.02,41.62,0,.92.02,1.84.03,2.76-.41.06-.44-.27-.54-.53-.09-.36-.05-.73-.07-1.1-.05-3.57-.06-7.14,0-10.72,0-.37-.02-.74,0-1.12-.05-4.16.01-8.33-.04-12.42-3.61,1.02-7.16.57-10.7.43-.14-.06-.25-.16-.34-.29-.28-1.19-.43-2.38.13-3.54v-4.29c-.24-.33-.24-.66,0-1,0-.79,0-1.57,0-2.36.05-.05.11-.11.16-.16.56-.3,1.17-.23,1.76-.23,2.56-.01,5.12.01,7.67-.01,1.3-.01,1.32-.07,1.32-1.36,0-1.4-.01-2.8,0-4.2,0-.52-.03-1.05.34-1.48Z"/>
    <path class="cls-40" d="M42.27,64.31c.06,0,.12,0,.18,0,.16.21.39.35.62.48.54.23,1.11.12,1.66.12,13.82,0,27.63,0,41.45.01.64,0,1.37-.22,1.86.45-.17.35-.47.47-.78.55-4.2,1.11-8.44,2.07-12.68,3.02-7.91-.39-15.82-.12-23.74-.19-2.36-.02-4.7.34-7.07.2-.32-.02-.65,0-.83.35-.31,1.68-.07,3.38-.14,5.07-.02.51.02,1.02-.05,1.53-.02.14-.07.28-.14.41-.08.13-.2.2-.35.21,0-4.08,0-8.16,0-12.23Z"/>
    <path class="cls-9" d="M35.53,44.92c.2.16.29.51.65.42,1.52-.38,3.07-.36,4.62-.32.64.02,1.1-.12,1.22-.83.21-.42.56-.69.99-.79,4.22-.96,8.36-2.21,12.64-2.93,6.32-.08,12.64-.05,18.95-.05.66,0,1.38-.15,1.93.41-3.29,1.07-6.73,1.55-10.09,2.35-7.63,1.8-15.28,3.48-22.92,5.24-.89.21-1.2.05-1.13-.92.05-.6.25-1.27-.19-1.84-1.93-.03-3.86-.05-5.79-.09-.41,0-1.07.22-.88-.65Z"/>
    <path class="cls-59" d="M125.84,33.3c-3.65.02-7.3.04-10.95.07-.42.3-.85.12-1.27.02-7.1-1.56-14.11-3.48-21.21-5.04-1.6-.35-3.19-.73-4.78-1.11-.53-.13-1.12-.15-1.51-.63-2.09-.71-4.25-1.12-6.38-1.66-1.17-.3-2.32-.64-3.49-.96,5.79-.27,11.48-.03,17.18,1.45,10.68,2.78,21.47,5.17,32.21,7.73.07.02.13.08.2.12Z"/>
    <path class="cls-68" d="M119.21,89.53c.01.19.06.36.26.44.56.96,1.13,1.92,1.69,2.89.33.73.65,1.46.98,2.18-.22.61-.75.31-1.12.32-3.29.03-6.57.01-9.85.02-1.71-1.54-2.49-3.62-3.25-5.7-.07-.19.18-.32.37-.41,2.35-.27,4.71-.06,7.06-.12.84-.02,1.68,0,2.52,0,.49,0,.97,0,1.34.39Z"/>
    <path class="cls-67" d="M42.26,76.54s.09,0,.13,0c.05.05.11.09.16.14.21.32.2.69.23,1.06.04,2.44.05,4.88,0,7.31,0,.36.03.71,0,1.07.02.81,0,1.63,0,2.44,0,.26.01.5.25.67.44.28.94.17,1.41.17,4.11,0,8.22,0,12.33.02.51,0,1.33-.22,1.41.45.06.52-.76.55-1.24.68-4.87,1.4-9.72,2.86-14.6,4.21-.62.17-1.25.28-1.9.4.04.05.05.07.06.07,4.79-.62,9.6-.37,14.4-.16.14.07.22.18.24.33-4.98.02-9.96.04-14.95.07-.86,0-.84-.48-.55-.99.26-.45.46-.91.62-1.4,1.3-1.76,2.1-3.61,2-5.93-.16-3.53-.02-7.08,0-10.62Z"/>
    <path class="cls-65" d="M77.22,4.47c.22.04.45.08.67.12,1,.21,2.07.31,2.59,1.41-.42,1.58-.92,3.13-2.06,4.39-2.57.09-3.99-.81-4.32-2.72-.3-1.76.27-2.59,2.16-3.19.31-.21.63-.2.95-.02Z"/>
    <path class="cls-35" d="M30.74,58.82c.39-.01.77-.07,1.11-.28.32-.22.62-.29.91.05,1.84.58,2.42,1.33,2.25,2.91-.17,1.59-1.44,2.87-3.04,3.02-.47.05-.95,0-1.43,0-1.09-1.22-1.37-2.81-1.94-4.27.29-1.11,1.2-1.3,2.14-1.45Z"/>
    <path class="cls-34" d="M104.83,21.12c-1.45.13-2.77-.04-3.74-1.33-1.25-1.66-.94-3.36.85-4.44.5,0,.92-.53,1.47-.25l1.86.52c.73.14,1.44.28,1.58,1.2-.55,1.49-.94,3.05-2.01,4.29Z"/>
    <path class="cls-10" d="M80.39,6.01c-.7-.7-1.62-1.02-2.5-1.42.74.01,1.08-.14,1.08-1.08,0-1.93,1.32-3.36,2.92-3.49,1.92-.16,3.13,1.08,2.93,3.03-.02.19.04.38.07.58-1.16,1.23-2.58,2.04-4.19,2.52-.12,0-.22-.05-.31-.14Z"/>
    <path class="cls-60" d="M30.74,58.82c-.69.41-1.5.63-2,1.31-.03.24-.21.26-.4.27-1.42-.79-2.98-1.38-4.15-2.58.04-.11.11-.23.11-.34-.15-2.5.75-3.37,3.24-3.27.81.03,1.2.58,1.63,1.06.79.88,1.2,1.91.96,3.13-.11.56.39.31.61.42Z"/>
    <path class="cls-60" d="M106.76,16.73c-.5-.37-1-.73-1.5-1.1-.25-1.82.17-3.39,1.75-4.48.89-.61,1.89-.46,2.83-.09.88.34,1.44.9,1.22,1.96-.09.46-.05.95.23,1.38-1.29,1.07-2.64,2.04-4.27,2.52-.12-.02-.21-.09-.26-.2Z"/>
    <path class="cls-74" d="M24.19,57.82c1.42.74,2.86,1.45,4.14,2.44,0,.54-.32.89-.71,1.21-.11.03-.21.01-.3-.06-.09-.59-.56-.46-.93-.45-.76.02-1.5-.13-2.2-.4-.59-.23-1.16-.59-1.18-1.34-.02-.79.46-1.21,1.18-1.41Z"/>
    <path class="cls-74" d="M80.56,6.02c1.57-.57,2.88-1.62,4.33-2.4.65.39,1.41.84,1.16,1.7-.27.91-1.22,1.19-2.05,1.38-.81.19-1.66.21-2.49.3-.62-.04-.96-.34-.95-.98Z"/>
    <path class="cls-32" d="M106.99,16.8c1.52-.65,2.74-1.83,4.31-2.4.54.44,1.34.79,1.13,1.62-.21.84-.98,1.11-1.8,1.31-.74.18-1.48.24-2.22.15-.3-.03-.44,0-.5.29-.61-.04-1-.29-.92-.98Z"/>
    <path class="cls-36" d="M80.56,6.02c.32.33.63.65.95.98,0,.08.02.15.06.22.12,1.11.13,2.19-.61,3.13-.84.22-1.68.22-2.53.03.65-1.46,1.31-2.92,1.96-4.38.06,0,.12,0,.17.02Z"/>
    <path class="cls-51" d="M106.99,16.8c.21.42.55.72.92.98,0,.05,0,.11,0,.16.1,1.12.05,2.2-.66,3.15-.81,0-1.61.02-2.42.02.55-1.5,1.16-2.98,1.93-4.39.08.03.15.05.23.07Z"/>
    <path class="cls-5" d="M27.55,61.43c.26-.39.52-.78.78-1.17.14-.04.27-.09.41-.13.62,1.46,1.35,2.87,1.8,4.4-.79,0-1.58-.01-2.36-.02-.65-.94-.87-1.96-.63-3.08Z"/>
    <path class="cls-57" d="M80.96,10.36c.2-1.04.41-2.09.61-3.13.48.65,1.04,1.25,1.24,2.07.03.5-.12.92-.58,1.18-.43,0-.86.09-1.27-.12Z"/>
    <path class="cls-17" d="M27.55,61.43c.21,1.03.42,2.06.63,3.08-.44,0-.87.02-1.31.03-.45-.26-.53-.71-.63-1.16.36-.66.72-1.31,1.08-1.97.07.02.15.02.23.02Z"/>
    <path class="cls-52" d="M107.25,21.09c.22-1.05.44-2.1.66-3.15.57.61.98,1.32,1.22,2.12,0,.45-.06.88-.55,1.09-.44-.02-.89-.04-1.33-.07Z"/>
    <path class="cls-54" d="M32.39,57.07c-.01-.93.69-.7,1.19-.69.42,0,.86.11.43.71-.16.22.13.21.21.3.2.24.86.22.57.71-.28.47-.77.21-1.17.04-.18-.08-.35-.18-.53-.27-.09-.05-.16-.12-.22-.21-.12-.17-.27-.31-.41-.45-.02-.05-.04-.09-.06-.14Z"/>
    <path class="cls-13" d="M103.4,15.1c-.49.08-.98.17-1.47.25.33-.23.9-.39.28-.92-.23-.14-.24-.36-.2-.59.13-.35.49-.53.64-.87,1,.44.56,1.4.76,2.13Z"/>
    <path class="cls-58" d="M102.22,13.71c0,.24,0,.48,0,.72-.03.03-.06.05-.09.08-.44.41-1.12.65-1.44.21-.41-.57.52-.64.74-1.03.27-.22.53-.23.79.02Z"/>
    <path class="cls-42" d="M75.78,3.84c-.18.09-.35.2-.53.26-.29.08-.67.27-.87-.07-.22-.38.2-.52.41-.74.11-.11.17-.26.25-.39.25-.24.52-.23.8-.06.25.35.21.68-.05,1Z"/>
    <path class="cls-20" d="M26.24,63.38c.21.39.42.77.63,1.16-.41.22-.82.43-1.51.47.33-.61.61-1.12.88-1.63Z"/>
    <path class="cls-44" d="M82.23,10.48c.19-.39.38-.78.58-1.18.3.5.6.99.96,1.59-.65.05-1.08-.24-1.54-.42Z"/>
    <path class="cls-14" d="M102.22,13.71c-.26,0-.53-.01-.79-.02-.38-.26-.54-.54.05-.68.37-.09.78-.03,1.16-.04.36.53.16.75-.42.74Z"/>
    <path class="cls-6" d="M108.58,21.16c.18-.36.37-.73.55-1.09.43.38.56.93.87,1.45-.58.17-.98-.18-1.42-.36Z"/>
    <path class="cls-70" d="M77.22,4.47c-.32,0-.63.01-.95.02-.04-.22-.08-.43-.12-.65-.08-.57.21-.84.74-.91.11.51.22,1.03.33,1.54Z"/>
    <path class="cls-21" d="M76.9,2.93c-.21.33-.65.48-.74.91-.13,0-.25,0-.38,0,.01-.31.03-.62.04-.93.13-.29.51-.24.67-.48.29.05.42.22.41.5Z"/>
    <path class="cls-46" d="M33.06,57.6c0,.09.02.18.03.27-.11.24-.22.49-.32.73-.3-.02-.61-.03-.91-.05.1-.52.09-1.08.53-1.48,0,0-.02.02-.02.02.05.06.13.13.12.19-.15.72.33.3.57.32Z"/>
    <path class="cls-30" d="M76.49,2.43c.02.5-.32.5-.67.48-.26,0-.52,0-.78,0-.34-.3-.22-.47.17-.49.43-.02.86,0,1.29.02Z"/>
    <path class="cls-18" d="M64.98,61.18c-1.4.03-1.57-.14-1.61-1.55q-.07-2.96,2.91-2.96c6.26,0,12.51,0,18.77,0,.55,0,1.13-.11,1.55.41.22.85-.45.94-.96,1.02-4.65.73-9.27,1.56-13.92,2.28-2.24.35-4.48.56-6.73.79Z"/>
    <path class="cls-73" d="M42.43,52.08c18.19,0,36.38-.01,54.57-.02,3.64,0,7.28,0,10.91,0,.29.29.29.6.07.93,0,0-.07.06-.07.06-.52-.01-1.04-.03-1.56-.03-20.87,0-41.74,0-62.61,0-.64,0-1.48.23-1.31-.93Z"/>
    <path class="cls-72" d="M64.98,61.18c1.43-.46,2.95-.4,4.41-.7,4.99-1.03,10.08-1.51,15.06-2.61.75-.16,1.73.31,2.14-.78.45,1.11.23,2.27.14,3.39-.06.76-.81.73-1.43.73-5.14,0-10.29,0-15.43,0-1.63,0-3.27-.02-4.9-.03Z"/>
    <path class="cls-37" d="M42.45,65.02c0-.23,0-.46,0-.7,16.39,0,32.78,0,49.17,0,.03.34-.14.51-.27.53.34-.12.89-.19,1.45-.19,4.5,0,9,0,13.5,0,.55,0,1.12-.08,1.61.31.07.16.03.29-.11.4-.47.3-1,.27-1.51.27-5.27,0-10.57.39-15.8-.09-7.85-.73-15.69-.27-23.52-.39-7.82-.13-15.65-.03-23.47-.03-.35,0-.72.1-1.05-.12Z"/>
    <path class="cls-7" d="M107.91,60.69c0,1.19,0,2.38.01,3.57-.39.47-.93.4-1.44.4-4.31,0-8.63,0-12.94,0-.51,0-1.05.07-1.45-.38,1.77-.39,3.55-.76,5.31-1.18,3-.71,6-1.43,8.99-2.18.51-.13,1-.25,1.52-.24Z"/>
    <path class="cls-47" d="M92.09,64.29c5.28,0,10.56-.01,15.84-.02,0,0,.02.07.02.07.19.23.2.47,0,.7h-17.72c.44-.35,1.14-.05,1.41-.7.16-.01.31-.03.47-.04Z"/>
    <path class="cls-49" d="M107.91,55.41c0,.33,0,.67,0,1-4.61-.16-9.22-.31-13.83-.47,4.62-.1,9.21-.61,13.83-.53Z"/>
    <path class="cls-67" d="M110.84,95.22c3.51.01,7.01.03,10.52.04.28,0,.56,0,.78-.22.12.79-.5.42-.75.42-3.08.03-6.15.02-9.23.02-5.19,0-10.39-.03-15.58,0-.86,0-1.37-.3-1.86-1-.9-1.29-1.66-2.7-2.82-3.8-.28-.33-.93-.54-.35-1.13.38-.17.78-.14,1.18-.14,4.31,0,8.62-.01,12.94,0,.53,0,1.31-.2,1.46.43.12.53-.64.72-1.08.94-2.85,1.42-5.75,2.74-8.79,4.11,4.04,0,7.95,0,11.85,0,.59,0,1.21-.07,1.73.31Z"/>
    <path class="cls-38" d="M69.74,90.66c-1.32,1.43-2.18,3.23-3.58,4.6-1.37.26-2.75.09-4.13.11-2.1.03-4.19,0-6.29.01-.19-.01-.45-.02-.35-.3.1-.28.4-.38.66-.48,4.27-1.57,8.49-3.28,12.81-4.7.37-.08.74-.21,1.11,0,.25.36.06.58-.24.76Z"/>
    <path class="cls-56" d="M69.74,90.66c.09-.23.18-.45.27-.68.08-.25.26-.4.5-.48.47-.13.95-.09,1.42-.1,5.92,0,11.85,0,17.77,0,.58,0,1.21-.14,1.71.32.09.36.53.53.49.96-6.63,0-13.25.03-19.88-.01-.76,0-1.53.48-2.28-.02Z"/>
    <path class="cls-45" d="M55.39,95.22c3.59.01,7.18.02,10.77.04-.12.2-.32.21-.52.21-3.5-.02-7-.04-10.5-.06,0,0-.02-.11-.02-.11.02-.04.04-.07.05-.11.08-.04.15-.03.22.03Z"/>
    <path class="cls-61" d="M107.91,48.02c-5.14-1.23-10.29-2.45-15.43-3.68-4.56-1.09-9.11-2.2-13.67-3.31-.15-.04-.28-.13-.42-.2.49-.52,1.15-.53,1.78-.51,4.79.18,9.58.06,14.37.14,1.1-.03,2.12.39,3.16.63,2.92.68,5.82,1.41,8.73,2.13.61.15,1.27.24,1.68.82.22,1.34.49,2.68-.2,3.98Z"/>
    <path class="cls-29" d="M107.91,48.02c0-1.37,0-2.73.01-4.1.36-.29.77-.21,1.15-.12,1.93.46,3.91.75,5.75,1.55.68.29,1.42.07,2.13.13.67.05,1.35-.11,2.01.1.07,0,.14.01.22.02,0,2.15,0,4.31.03,6.46.01.72-.2.99-.95.98-3.43-.04-6.85-.04-10.28-.06-.02-.31-.05-.62-.07-.93,0,0,0,0,0,0,.29-.24.64-.33,1-.32,3,.03,6.01-.18,9,.17.16,0-.02-.25.04-.1.02.04-.02.07-.1.06-3.14-.27-6.19-1.02-9.27-1.61-.24-.05-.44-.18-.6-.37l-.07-1.87Z"/>
    <path class="cls-31" d="M94.74,40.78c-4.2-.06-8.4.11-12.61-.08-1.22-.06-2.5-.19-3.73.13-.62,0-1.24,0-1.86,0-7.05-.01-14.1-.03-21.15-.04,0-.17.06-.34.22-.37,1.6-.31,3.14-.96,4.8-1.01,1.15.22,2.31.05,3.46.05,8.22.03,16.44-.05,24.66.04.4,0,.8.03,1.19-.09,1.6-.02,3.07.6,4.61.89.22.04.44.2.41.49Z"/>
    <path class="cls-66" d="M77.2,44.2c1.58,1.52,1.08,3.52.19,4.48-1.03,1.12-2.71,1.33-4.02.51-.46-.29-.76-.68-.97-1.17.29-.9,1.17-1.14,1.81-1.65.96-.77,2.04-1.38,2.99-2.17Z"/>
    <path class="cls-33" d="M107.98,49.89c3.51.55,7.01,1.2,10.46,2.17-3.51,0-7.01,0-10.52,0,.02-.72.04-1.45.06-2.17Z"/>
    <path class="cls-48" d="M77.2,44.2c-.57,1.34-2.04,1.61-2.99,2.52-.53.51-1.2.87-1.81,1.3-.7-1.49-.47-2.88.66-3.85,1.17-1,2.58-.99,4.14.03Z"/>
    <path class="cls-23" d="M59.95,50.3c-.54.48-.99.32-1.4.32-5.14.02-10.29.03-15.43.04-.27,0-.7.26-.66-.33.02-.39.34-.41.62-.38,5.41.45,10.83.1,16.25.24.15,0,.3.06.63.12Z"/>
    <path class="cls-26" d="M94.74,40.78c-1.6-.39-3.21-.78-4.81-1.17-2.66.02-5.14-.9-7.69-1.49-1.9-.44-3.8-.91-5.69-1.39-.98-.25-1.98-.19-2.96.03-3.38.77-6.73,1.66-10.1,2.46-1.08.26-2.16.46-3.28.4-1.61.39-3.22.77-4.83,1.16-4.12.97-8.23,1.95-12.35,2.91-.33.08-.55.29-.81.47-1.64.59-3.29,1.16-5.08.94.64-.74,1.6-.79,2.44-1.12,2.53-.99,5.07-1.95,7.6-2.95,2.05-.82,4.15-1.52,6.19-2.38,3.09-1.3,6.25-2.46,9.4-3.6,3.64-1.32,7.2-2.82,10.84-4.12,2.79-1,5.47-2.25,8.3-3.14,1.39-.44,2.69-1.19,4.21-1.18,2.83.64,5.66,1.26,8.48,1.93,6.77,1.6,13.53,3.22,20.29,4.83-.35,3.09-.22,6.19-.24,9.28,0,.2,0,.4,0,.6.04,2.12.04,2.09,2.11,2.13.73.01,1.51-.24,2.2.21-3.09.29-6.03-.42-8.97-1.24-.68-.19-1.38-.28-2.07-.42-4.01-.97-8.01-1.94-12.02-2.91-.38-.09-.78-.16-1.16-.23Z"/>
    <path class="cls-71" d="M37.14,45.11c1.08.11,2.03-.44,3.04-.66.69-.15,1.35-.26,2.04-.28.19.94-.08,1.31-1.14,1.24-1.63-.12-3.27-.05-4.9-.06.26-.32.63-.19.96-.23Z"/>
    <path class="cls-4" d="M119.17,77.49c0,3.69,0,7.38,0,11.07-.34.39-.8.54-1.28.54-3.14,0-6.29.18-9.42-.13-.2-.02-.39-.06-.57-.16-.1-.11-.17-.25-.22-.39-.22-2.32-.09-4.65-.08-6.98-.02-.45-.02-.9,0-1.35.04-.9-.25-1.85.38-2.67.34-.25.74-.29,1.14-.29,2.95-.02,5.89-.02,8.84,0,.44,0,.88.02,1.23.36Z"/>
    <path class="cls-11" d="M107.93,65.03c0-.23,0-.47,0-.7,2.43-.01,4.86-.05,7.28-.02,1.36.01,2.72.12,3.72-1.19.08.06.16.11.24.17v13.26c-.34.34-.78.36-1.22.37-2.93.02-5.87.02-8.8,0-.4,0-.79-.03-1.15-.25-.73-.93-.41-1.98-.34-3,.15-.52.53-.89.92-1.22,2.44-2.11,4.69-4.44,7.08-6.6.12-.11.23-.22.61-.28-2.41.03-4.61.01-6.81.01-.47,0-.96.06-1.4-.19-.04-.05-.08-.1-.13-.14,0-.07,0-.14-.02-.22Z"/>
    <path class="cls-25" d="M107.92,76.54c3.75,0,7.51.01,11.26.02,0,.31,0,.63,0,.94-3.74,0-7.47,0-11.21,0-.04-.03-.08-.06-.13-.09-.14-.25-.14-.5-.03-.75.04-.04.07-.07.11-.11Z"/>
    <path class="cls-39" d="M107.96,88.81c.36-.21.75-.18,1.14-.16,3.36.19,6.71.28,10.07-.09.01.32.03.65.04.97-3.76,0-7.52,0-11.28,0-.04-.04-.07-.09-.11-.13-.08-.23-.07-.44.15-.59Z"/>
    <path class="cls-3" d="M107.96,73.44c-.01,1.03-.02,2.06-.03,3.09,0,0-.02-.01-.02-.01-.64.58-1.43.41-2.17.41-12.34.01-24.68,0-37.02,0-8.07,0-16.13,0-24.2,0-.71,0-1.45.14-2.07-.38,0,0-.05-.02-.05-.02.03-.07.05-.14.06-.22.5-.43,1.13-.61,1.74-.74,7.62-1.55,15.1-3.67,22.66-5.47,1.31-.31,2.65-.48,3.92-.94.46-.17.94-.17,1.42-.17,1.24.06,2.46.26,3.68.47.44.08.86.2,1.24.43,1.07.63,1.1,1.62.02,2.23-1.17.66-2.48.84-3.81.92-3.23.19-6.46-.05-9.69.02,3.33-.04,6.66.12,9.99,0,1.13-.04,2.21-.33,3.24-.76.56-.23,1.22-.48,1.19-1.32-.03-.82-.71-.99-1.25-1.28-.67-.36-1.48-.35-2.15-.72-.13-.1-.15-.22-.08-.36,1.37-.33,2.75-.65,4.12-.98,2.93-.71,5.86-1.43,8.78-2.14.1-.02.2-.08.56-.24-.87,0-1.46,0-2.04,0-14.07,0-28.13,0-42.2,0-.45,0-.97.21-1.35-.25,21.83.06,43.67-.09,65.5.23,0,0,0,0,0,0,.05.07.12.13.13.2.33,2.67.51,5.34-.13,7.99Z"/>
    <path class="cls-8" d="M70.73,69.36c-.03.21-.1.39-.33.44-7.06,1.31-13.94,3.34-20.92,5-2.33.56-4.69,1.02-7.03,1.53,0-2.41,0-4.83,0-7.24.31-.24.68-.21,1.04-.2,8.39.2,16.79.02,25.18.09.7,0,1.46-.17,2.06.4Z"/>
    <path class="cls-41" d="M70.73,69.36c-7.52,0-15.03-.02-22.55,0-1.92,0-3.82-.09-5.73-.28.08-.62.57-.43.93-.45,9.33-.35,18.66-.23,27.99-.22,1.07,0,2.12.32,3.21.22,0,.07,0,.14.01.22-.71.63-1.67.02-2.4.49-.49,0-.97.01-1.46.02Z"/>
    <path class="cls-45" d="M91.41,89.73c-7.05,0-14.09,0-21.14,0,.28-.77.95-.57,1.5-.57,3.67-.02,7.33,0,11,0,7.81,0,15.63,0,23.44,0,.59,0,1.21-.1,1.71.36,0,0,0,.02,0,.02.94,1.92,2.12,3.71,2.92,5.69-4.81,0-9.63,0-14.44,0-.03-.08-.06-.17-.08-.25,3.56-1.66,7.11-3.32,10.67-4.98,0-.09-.01-.17-.02-.26h-15.54Z"/>
    <path class="cls-12" d="M107.96,77.49c-.01.88-.03,1.76-.04,2.65-.42.4-.95.34-1.47.37-6.06.31-12.13.28-18.2.21-3.62-.04-6.94.76-9.96,2.76-2.97,1.98-6.22,1.72-9.45,1.06-1.38-.28-2.75-.77-4.09-1.25,3.19,1.24,6.46,1.99,9.9,1.63,1.74-.18,3.25-1.07,4.68-2,2.33-1.51,4.9-2.07,7.6-2.15,6.55-.2,13.09.31,19.63.23.48,0,.97,0,1.35.37,0,2.39,0,4.79.01,7.18-.42.53-1,.6-1.62.6-11.82-.03-23.64-.04-35.46-.01-8.86.03-17.73-.06-26.59,0-.63,0-1.29.13-1.83-.36,0-.88,0-1.76.01-2.64.43-.38.96-.35,1.47-.35,3.54,0,7.08-.22,9.87-.12-2.79-.02-6.33.06-9.86-.11-.51-.03-1.05.03-1.47-.35,0-2.58.02-5.16.02-7.74.47-.4,1.05-.34,1.6-.34,20.72,0,41.43,0,62.15,0,.59,0,1.21-.05,1.71.38h.02Z"/>
    <path class="cls-1" d="M107.94,77.5c-21.3,0-42.6,0-63.9-.01-.52,0-1.04-.02-1.56-.03-.01-.3-.03-.61-.04-.91,13.07,0,26.14-.02,39.2-.02,8.75,0,17.5,0,26.26,0,.01.33.03.65.04.98Z"/>
    <path class="cls-53" d="M42.44,88.78c8.87,0,17.73,0,26.6-.01,12.41,0,24.83,0,37.24,0,.57,0,1.11-.08,1.65-.23,0,.09.02.18.03.27-.01.23-.02.47-.03.7-12.1,0-24.2-.02-36.3-.02-.45,0-.97-.2-1.35.24-.09.08-.18.17-.26.25-.32.08-.64.16-.96.23-.32-.23-.67-.14-1.02-.14-3.12.03-6.24.13-9.36-.04-.37-.49-.9-.42-1.42-.42-4.51,0-9.01,0-13.52,0-.43,0-.88.1-1.29-.1,0-.24,0-.49,0-.73Z"/>
    <path class="cls-45" d="M42.44,89.51c5.05,0,10.1,0,15.15.01.41,0,1.01-.27,1.16.46.16.47-.21.75-.43,1.04-1.06,1.39-2.02,2.86-3.14,4.21,0,0-.06.06-.06.06-5.02,0-10.04,0-15.06,0,0-.07-.01-.13-.02-.2l17.97-5.22s0-.09,0-.13c-3.21,0-6.43,0-9.64,0-1.6,0-3.2,0-4.79,0-.38,0-.81.15-1.12-.23Z"/>
    <path class="cls-15" d="M42.46,85.2c4.47.05,8.94.35,13.42.47-4.49.02-8.94.57-13.43.46,0-.31,0-.62,0-.93Z"/>
    <path class="cls-64" d="M33.54,61.33q-.62-.91-1.37-.31c-.13-.57.03-.98.6-1.01.8-.04.81.55.77,1.32Z"/>
    <path class="cls-55" d="M101.99,17.65c-.12-.65.06-1.05.6-1.05.7,0,.75.55.79,1.37-.42-.86-.85-1.18-1.4-.33Z"/>
    <path class="cls-50" d="M33.06,57.6c-.2.16-.39.32-.69.56v-1.07c.3.07.78-.1.69.51Z"/>
    <path class="cls-69" d="M55.17,95.24c.74-1.82,2.15-3.18,3.22-4.78.11-.16.24-.32.36-.47.39-.24.83-.25,1.27-.24,2.6,0,5.19,0,7.79,0,.47,0,.99-.11,1.24.47-1.44.17-2.7.91-4.04,1.37-3.1,1.05-6.14,2.28-9.2,3.43-.14.05-.28.14-.42.21-.07.02-.15.02-.22.02Z"/>
    <path class="cls-27" d="M60.21,39.62c4.67-1.12,9.34-2.27,14.03-3.34,1.49-.34,2.9.27,4.33.62,3.78.92,7.57,1.81,11.36,2.71-.32.36-.75.22-1.13.22-9.15,0-18.3,0-27.45,0-.38,0-.81.14-1.13-.21Z"/>
    <path class="cls-24" d="M107.92,81.36c-6.55-.08-13.1-.16-19.64-.26-1.68-.03-3.33.16-4.98.42-1.83.28-3.36,1.29-4.84,2.21-2.29,1.42-4.71,1.6-7.23,1.44-2.27-.14-4.34-1.09-6.49-1.72.99-.28,1.84.21,2.69.48,4.15,1.31,8.1,1.34,11.84-1.29,2.25-1.58,4.89-2.07,7.57-2.23,1.43-.09,2.88-.04,4.32-.01,5.59.12,11.18-.19,16.76-.25,0,.41,0,.82,0,1.22Z"/>
    <path class="cls-22" d="M107.96,73.44c0-2.73,0-5.46,0-8.19,2.79,0,5.58,0,8.76,0-3.03,2.93-5.83,5.63-8.76,8.19Z"/>
    <path class="cls-2" d="M72.19,69.35c.71-.6,1.58-.45,2.4-.49,1.11,0,2.11.33,3.03.94,1.16.78,1.14,1.72-.05,2.51-1.13.75-2.44,1.03-3.73,1.08-1.82.08-3.65.08-5.49-.13-1.88-.21-3.81-.05-5.72-.31.84,0,1.68,0,2.52,0,3.34.03,6.68-.05,10-.47.64-.08,1.23-.3,1.8-.59.35-.18.73-.34.73-.84,0-.5-.35-.69-.72-.85-1.53-.64-3.16-.71-4.78-.85Z"/>
    <path class="cls-16" d="M71.65,80.59c.62.1,1.25.19,1.87.3.25.04.47.16.49.44.02.29-.21.46-.45.46-.97.02-1.92.53-2.92.07-.31-.14-.78-.07-.76-.56.02-.39.43-.39.72-.5.34-.13.68-.2,1.05-.21Z"/>
  </g>
  <path class="cls-19" d="M20,30.48c0,1.43,0,2.86,0,4.29,0,.26-.02.53-.02.79,0,.19-.07.31-.24.4-.57.33-1.14.68-1.71,1.01-1.86,1.08-3.72,2.17-5.59,3.25-.74.43-1.48.84-2.22,1.26-.15.09-.28.08-.42,0-.95-.54-1.9-1.08-2.85-1.62-2.18-1.26-4.36-2.51-6.53-3.79-.29-.17-.38-.36-.39-.69-.04-3.29-.02-6.57-.02-9.85,0-.33.03-.66.02-.99,0-.17.06-.28.21-.37.75-.44,1.49-.89,2.24-1.33,1.88-1.09,3.75-2.18,5.63-3.27.56-.32,1.13-.63,1.69-.95.14-.08.25-.08.39,0,1.66.93,3.31,1.88,4.96,2.83,1.54.89,3.08,1.77,4.6,2.69.16.1.22.21.22.4.04,1.98.03,3.96.03,5.94h0Z"/>
  <g class="cls-78">
    <text class="cls-76" transform="translate(7.05 26.25)"><tspan x="0" y="0">E</tspan></text>
    <text class="cls-76" transform="translate(8.9 26.25)"><tspan x="0" y="0">x</tspan></text>
    <text class="cls-76" transform="translate(10.55 26.25)"><tspan x="0" y="0">t.</tspan></text>
    <text class="cls-81" transform="translate(5.37 30.79)"><tspan x="0" y="0">t</tspan></text>
    <text class="cls-76" transform="translate(6.6 30.79)"><tspan x="0" y="0">emp.</tspan></text>
    <text class="cls-76" transform="translate(4.48 35.34)"><tspan x="0" y="0">20.1 °C</tspan></text>
  </g>
  <path class="cls-19" d="M20,60.92c0,1.43,0,2.86,0,4.29,0,.26-.02.53-.02.79,0,.19-.07.31-.24.4-.57.33-1.14.68-1.71,1.01-1.86,1.08-3.72,2.17-5.59,3.25-.74.43-1.48.84-2.22,1.26-.15.09-.28.08-.42,0-.95-.54-1.9-1.08-2.85-1.62-2.18-1.26-4.36-2.51-6.53-3.79-.29-.17-.38-.36-.39-.69-.04-3.29-.02-6.57-.02-9.85,0-.33.03-.66.02-.99,0-.17.06-.28.21-.37.75-.44,1.49-.89,2.24-1.33,1.88-1.09,3.75-2.18,5.63-3.27.56-.32,1.13-.63,1.69-.95.14-.08.25-.08.39,0,1.66.93,3.31,1.88,4.96,2.83,1.54.89,3.08,1.77,4.6,2.69.16.1.22.21.22.4.04,1.98.03,3.96.03,5.94h0Z"/>
  <g class="cls-78">
    <text class="cls-76" transform="translate(7.43 56.32)"><tspan x="0" y="0">I</tspan></text>
    <text class="cls-76" transform="translate(8.39 56.32)"><tspan x="0" y="0">n</tspan></text>
    <text class="cls-76" transform="translate(10.34 56.32)"><tspan x="0" y="0">t.</tspan></text>
    <text class="cls-81" transform="translate(5.46 60.86)"><tspan x="0" y="0">t</tspan></text>
    <text class="cls-76" transform="translate(6.69 60.86)"><tspan x="0" y="0">emp.</tspan></text>
    <text class="cls-76" transform="translate(4.57 65.41)"><tspan x="0" y="0">34.3 °C</tspan></text>
  </g>
  <path class="cls-19" d="M20,90.75c0,1.43,0,2.86,0,4.29,0,.26-.02.53-.02.79,0,.19-.07.31-.24.4-.57.33-1.14.68-1.71,1.01-1.86,1.08-3.72,2.17-5.59,3.25-.74.43-1.48.84-2.22,1.26-.15.09-.28.08-.42,0-.95-.54-1.9-1.08-2.85-1.62-2.18-1.26-4.36-2.51-6.53-3.79-.29-.17-.38-.36-.39-.69-.04-3.29-.02-6.57-.02-9.85,0-.33.03-.66.02-.99,0-.17.06-.28.21-.37.75-.44,1.49-.89,2.24-1.33,1.88-1.09,3.75-2.18,5.63-3.27.56-.32,1.13-.63,1.69-.95.14-.08.25-.08.39,0,1.66.93,3.31,1.88,4.96,2.83,1.54.89,3.08,1.77,4.6,2.69.16.1.22.21.22.4.04,1.98.03,3.96.03,5.94h0Z"/>
  <g class="cls-78">
    <text class="cls-76" transform="translate(5.04 86.15)"><tspan x="0" y="0">Hon</tspan></text>
    <text class="cls-76" transform="translate(11.39 86.15)"><tspan x="0" y="0">e</tspan></text>
    <text class="cls-76" transform="translate(13.24 86.15)"><tspan x="0" y="0">y</tspan></text>
    <text class="cls-77" transform="translate(6.68 90.69)"><tspan x="0" y="0">e</tspan></text>
    <text class="cls-76" transform="translate(8.51 90.69)"><tspan x="0" y="0">x</tspan></text>
    <text class="cls-76" transform="translate(10.16 90.69)"><tspan x="0" y="0">t</tspan></text>
    <text class="cls-79" transform="translate(11.43 90.69)"><tspan x="0" y="0">r</tspan></text>
    <text class="cls-76" transform="translate(12.36 90.69)"><tspan x="0" y="0">.</tspan></text>
    <text class="cls-76" transform="translate(3.5 95.23)"><tspan x="0" y="0">32.05 kg</tspan></text>
  </g>
  <path class="cls-19" d="M157.33,30.48c0,1.43,0,2.86,0,4.29,0,.26-.02.53-.02.79,0,.19-.07.31-.24.4-.57.33-1.14.68-1.71,1.01-1.86,1.08-3.72,2.17-5.59,3.25-.74.43-1.48.84-2.22,1.26-.15.09-.28.08-.42,0-.95-.54-1.9-1.08-2.85-1.62-2.18-1.26-4.36-2.51-6.53-3.79-.29-.17-.38-.36-.39-.69-.04-3.29-.02-6.57-.02-9.85,0-.33.03-.66.02-.99,0-.17.06-.28.21-.37.75-.44,1.49-.89,2.24-1.33,1.88-1.09,3.75-2.18,5.63-3.27.56-.32,1.13-.63,1.69-.95.14-.08.25-.08.39,0,1.66.93,3.31,1.88,4.96,2.83,1.54.89,3.08,1.77,4.6,2.69.16.1.22.21.22.4.04,1.98.03,3.96.03,5.94h0Z"/>
  <g class="cls-78">
    <text class="cls-76" transform="translate(144.77 25.88)"><tspan x="0" y="0">I</tspan></text>
    <text class="cls-76" transform="translate(145.72 25.88)"><tspan x="0" y="0">n</tspan></text>
    <text class="cls-76" transform="translate(147.68 25.88)"><tspan x="0" y="0">t.</tspan></text>
    <text class="cls-76" transform="translate(144.12 30.42)"><tspan x="0" y="0">son.</tspan></text>
    <text class="cls-76" transform="translate(143.06 34.96)"><tspan x="0" y="0">39 Hz</tspan></text>
  </g>
  <path class="cls-19" d="M157.33,60.56c0,1.43,0,2.86,0,4.29,0,.26-.02.53-.02.79,0,.19-.07.31-.24.4-.57.33-1.14.68-1.71,1.01-1.86,1.08-3.72,2.17-5.59,3.25-.74.43-1.48.84-2.22,1.26-.15.09-.28.08-.42,0-.95-.54-1.9-1.08-2.85-1.62-2.18-1.26-4.36-2.51-6.53-3.79-.29-.17-.38-.36-.39-.69-.04-3.29-.02-6.57-.02-9.85,0-.33.03-.66.02-.99,0-.17.06-.28.21-.37.75-.44,1.49-.89,2.24-1.33,1.88-1.09,3.75-2.18,5.63-3.27.56-.32,1.13-.63,1.69-.95.14-.08.25-.08.39,0,1.66.93,3.31,1.88,4.96,2.83,1.54.89,3.08,1.77,4.6,2.69.16.1.22.21.22.4.04,1.98.03,3.96.03,5.94h0Z"/>
  <g class="cls-78">
    <text class="cls-76" transform="translate(143.17 58.42)"><tspan x="0" y="0">Hum.</tspan></text>
    <text class="cls-76" transform="translate(143.63 62.96)"><tspan x="0" y="0">60 %</tspan></text>
  </g>
  <path class="cls-19" d="M157.33,90.64c0,1.43,0,2.86,0,4.29,0,.26-.02.53-.02.79,0,.19-.07.31-.24.4-.57.33-1.14.68-1.71,1.01-1.86,1.08-3.72,2.17-5.59,3.25-.74.43-1.48.84-2.22,1.26-.15.09-.28.08-.42,0-.95-.54-1.9-1.08-2.85-1.62-2.18-1.26-4.36-2.51-6.53-3.79-.29-.17-.38-.36-.39-.69-.04-3.29-.02-6.57-.02-9.85,0-.33.03-.66.02-.99,0-.17.06-.28.21-.37.75-.44,1.49-.89,2.24-1.33,1.88-1.09,3.75-2.18,5.63-3.27.56-.32,1.13-.63,1.69-.95.14-.08.25-.08.39,0,1.66.93,3.31,1.88,4.96,2.83,1.54.89,3.08,1.77,4.6,2.69.16.1.22.21.22.4.04,1.98.03,3.96.03,5.94h0Z"/>
  <g class="cls-78">
    <text class="cls-82" transform="translate(142.82 88.5)"><tspan x="0" y="0">V</tspan></text>
    <text class="cls-76" transform="translate(144.78 88.5)"><tspan x="0" y="0">e</tspan></text>
    <text class="cls-76" transform="translate(146.67 88.5)"><tspan x="0" y="0">n</tspan></text>
    <text class="cls-76" transform="translate(148.62 88.5)"><tspan x="0" y="0">t</tspan></text>
    <text class="cls-76" transform="translate(149.85 88.5)"><tspan x="0" y="0">o</tspan></text>
    <text class="cls-76" transform="translate(143 93.04)"><tspan x="0" y="0">2 m</tspan></text>
    <text class="cls-80" transform="translate(148.8 93.04)"><tspan x="0" y="0">/</tspan></text>
    <text class="cls-76" transform="translate(150.19 93.04)"><tspan x="0" y="0">s</tspan></text>
  </g>
</svg>