<?xml version="1.0" encoding="UTF-8"?>
<svg id="Layer_1" data-name="Layer 1" xmlns="http://www.w3.org/2000/svg" viewBox="0 0 316.93 364.3">
  <defs>
    <style>
      .cls-1 {
        <!-- fill: #FFFFFF; -->
                <!-- fill: #5A5A5A; -->
                fill: #000000;
        stroke-width: 0px;
        opacity: 0.8;
      }
    </style>
  </defs>
  <path class="cls-1" d="M316.9,188.94c0,22.66-.01,45.31,0,67.97,0,4.17-.34,8.33-.35,12.48,0,3.07-1.18,4.9-3.75,6.4-9.07,5.28-18.01,10.79-27.07,16.07-29.51,17.19-59.03,34.36-88.59,51.46-11.68,6.76-23.5,13.26-35.18,20.01-2.43,1.4-4.42,1.21-6.73-.11-15.04-8.59-30.17-17.04-45.19-25.67-34.59-19.89-69.13-39.84-103.51-60.09-4.56-2.69-6.07-5.67-6.14-10.89C-.21,214.51.05,162.45.08,110.4c0-5.24.41-10.49.36-15.73-.03-2.77,1.01-4.46,3.35-5.83,11.86-6.95,23.6-14.09,35.48-21.01,29.73-17.31,59.49-34.56,89.27-51.77,8.87-5.13,17.88-10.01,26.75-15.13,2.24-1.29,4.04-1.19,6.25.04,26.33,14.7,52.44,29.78,78.53,44.88,24.37,14.1,48.79,28.11,72.91,42.63,2.54,1.53,3.44,3.37,3.5,6.26.64,31.4.43,62.8.44,94.2Z"/>
</svg>